<?xml version="1.0" encoding="UTF-8"?><svg id="Layer_1" xmlns="http://www.w3.org/2000/svg" viewBox="0 0 483.42 124.69"><defs><style>.cls-1{fill:#fff;}</style></defs><g><g><path class="cls-1" d="M89.66,84.67h-6.48v-4.2h-.12c-.92,1.8-2.26,3.09-4.02,3.87-1.76,.78-3.62,1.17-5.58,1.17-2.44,0-4.57-.43-6.39-1.29-1.82-.86-3.33-2.03-4.53-3.51-1.2-1.48-2.1-3.23-2.7-5.25-.6-2.02-.9-4.19-.9-6.51,0-2.8,.38-5.22,1.14-7.26,.76-2.04,1.77-3.72,3.03-5.04,1.26-1.32,2.7-2.29,4.32-2.91,1.62-.62,3.27-.93,4.95-.93,.96,0,1.94,.09,2.94,.27,1,.18,1.96,.47,2.88,.87,.92,.4,1.77,.91,2.55,1.53,.78,.62,1.43,1.35,1.95,2.19h.12v-15.84h6.84v42.84Zm-23.88-15.18c0,1.32,.17,2.62,.51,3.9,.34,1.28,.86,2.42,1.56,3.42,.7,1,1.59,1.8,2.67,2.4,1.08,.6,2.36,.9,3.84,.9s2.83-.32,3.93-.96c1.1-.64,2-1.48,2.7-2.52,.7-1.04,1.22-2.21,1.56-3.51s.51-2.63,.51-3.99c0-3.44-.77-6.12-2.31-8.04-1.54-1.92-3.63-2.88-6.27-2.88-1.6,0-2.95,.33-4.05,.99-1.1,.66-2,1.52-2.7,2.58-.7,1.06-1.2,2.26-1.5,3.6-.3,1.34-.45,2.71-.45,4.11Z"/><path class="cls-1" d="M99.79,70.93c0,1.2,.17,2.36,.51,3.48s.85,2.1,1.53,2.94c.68,.84,1.54,1.51,2.58,2.01,1.04,.5,2.28,.75,3.72,.75,2,0,3.61-.43,4.83-1.29,1.22-.86,2.13-2.15,2.73-3.87h6.48c-.36,1.68-.98,3.18-1.86,4.5-.88,1.32-1.94,2.43-3.18,3.33-1.24,.9-2.63,1.58-4.17,2.04-1.54,.46-3.15,.69-4.83,.69-2.44,0-4.6-.4-6.48-1.2s-3.47-1.92-4.77-3.36c-1.3-1.44-2.28-3.16-2.94-5.16-.66-2-.99-4.2-.99-6.6,0-2.2,.35-4.29,1.05-6.27,.7-1.98,1.7-3.72,3-5.22,1.3-1.5,2.87-2.69,4.71-3.57,1.84-.88,3.92-1.32,6.24-1.32,2.44,0,4.63,.51,6.57,1.53,1.94,1.02,3.55,2.37,4.83,4.05s2.21,3.61,2.79,5.79c.58,2.18,.73,4.43,.45,6.75h-22.8Zm15.96-4.5c-.08-1.08-.31-2.12-.69-3.12-.38-1-.9-1.87-1.56-2.61-.66-.74-1.46-1.34-2.4-1.8-.94-.46-1.99-.69-3.15-.69s-2.29,.21-3.27,.63c-.98,.42-1.82,1-2.52,1.74-.7,.74-1.26,1.61-1.68,2.61-.42,1-.65,2.08-.69,3.24h15.96Z"/><path class="cls-1" d="M153.05,77.77c0,.84,.11,1.44,.33,1.8,.22,.36,.65,.54,1.29,.54h.72c.28,0,.6-.04,.96-.12v4.74c-.24,.08-.55,.17-.93,.27-.38,.1-.77,.19-1.17,.27-.4,.08-.8,.14-1.2,.18-.4,.04-.74,.06-1.02,.06-1.4,0-2.56-.28-3.48-.84-.92-.56-1.52-1.54-1.8-2.94-1.36,1.32-3.03,2.28-5.01,2.88-1.98,.6-3.89,.9-5.73,.9-1.4,0-2.74-.19-4.02-.57-1.28-.38-2.41-.94-3.39-1.68s-1.76-1.68-2.34-2.82c-.58-1.14-.87-2.47-.87-3.99,0-1.92,.35-3.48,1.05-4.68,.7-1.2,1.62-2.14,2.76-2.82,1.14-.68,2.42-1.17,3.84-1.47,1.42-.3,2.85-.53,4.29-.69,1.24-.24,2.42-.41,3.54-.51,1.12-.1,2.11-.27,2.97-.51,.86-.24,1.54-.61,2.04-1.11,.5-.5,.75-1.25,.75-2.25,0-.88-.21-1.6-.63-2.16-.42-.56-.94-.99-1.56-1.29s-1.31-.5-2.07-.6c-.76-.1-1.48-.15-2.16-.15-1.92,0-3.5,.4-4.74,1.2-1.24,.8-1.94,2.04-2.1,3.72h-6.84c.12-2,.6-3.66,1.44-4.98,.84-1.32,1.91-2.38,3.21-3.18,1.3-.8,2.77-1.36,4.41-1.68,1.64-.32,3.32-.48,5.04-.48,1.52,0,3.02,.16,4.5,.48,1.48,.32,2.81,.84,3.99,1.56,1.18,.72,2.13,1.65,2.85,2.79s1.08,2.53,1.08,4.17v15.96Zm-6.84-8.64c-1.04,.68-2.32,1.09-3.84,1.23-1.52,.14-3.04,.35-4.56,.63-.72,.12-1.42,.29-2.1,.51-.68,.22-1.28,.52-1.8,.9-.52,.38-.93,.88-1.23,1.5-.3,.62-.45,1.37-.45,2.25,0,.76,.22,1.4,.66,1.92,.44,.52,.97,.93,1.59,1.23s1.3,.51,2.04,.63,1.41,.18,2.01,.18c.76,0,1.58-.1,2.46-.3,.88-.2,1.71-.54,2.49-1.02,.78-.48,1.43-1.09,1.95-1.83,.52-.74,.78-1.65,.78-2.73v-5.1Z"/><path class="cls-1" d="M155.61,53.65h5.16v-9.3h6.84v9.3h6.18v5.1h-6.18v16.56c0,.72,.03,1.34,.09,1.86,.06,.52,.2,.96,.42,1.32,.22,.36,.55,.63,.99,.81,.44,.18,1.04,.27,1.8,.27,.48,0,.96,0,1.44-.03,.48-.02,.96-.09,1.44-.21v5.28c-.76,.08-1.5,.16-2.22,.24-.72,.08-1.46,.12-2.22,.12-1.8,0-3.25-.17-4.35-.51-1.1-.34-1.96-.84-2.58-1.5-.62-.66-1.04-1.49-1.26-2.49-.22-1-.35-2.14-.39-3.42v-18.3h-5.16v-5.1Z"/><path class="cls-1" d="M182.12,70.93c0,1.2,.17,2.36,.51,3.48,.34,1.12,.85,2.1,1.53,2.94,.68,.84,1.54,1.51,2.58,2.01,1.04,.5,2.28,.75,3.72,.75,2,0,3.61-.43,4.83-1.29,1.22-.86,2.13-2.15,2.73-3.87h6.48c-.36,1.68-.98,3.18-1.86,4.5-.88,1.32-1.94,2.43-3.18,3.33-1.24,.9-2.63,1.58-4.17,2.04-1.54,.46-3.15,.69-4.83,.69-2.44,0-4.6-.4-6.48-1.2-1.88-.8-3.47-1.92-4.77-3.36-1.3-1.44-2.28-3.16-2.94-5.16s-.99-4.2-.99-6.6c0-2.2,.35-4.29,1.05-6.27,.7-1.98,1.7-3.72,3-5.22,1.3-1.5,2.87-2.69,4.71-3.57,1.84-.88,3.92-1.32,6.24-1.32,2.44,0,4.63,.51,6.57,1.53,1.94,1.02,3.55,2.37,4.83,4.05,1.28,1.68,2.21,3.61,2.79,5.79,.58,2.18,.73,4.43,.45,6.75h-22.8Zm15.96-4.5c-.08-1.08-.31-2.12-.69-3.12-.38-1-.9-1.87-1.56-2.61-.66-.74-1.46-1.34-2.4-1.8-.94-.46-1.99-.69-3.15-.69s-2.29,.21-3.27,.63c-.98,.42-1.82,1-2.52,1.74s-1.26,1.61-1.68,2.61c-.42,1-.65,2.08-.69,3.24h15.96Z"/></g><polygon class="cls-1" points="40.34 40 55.34 41.84 55.34 60.4 40.34 40"/><polygon class="cls-1" points="47.84 84.67 55.34 84.67 55.34 63.4 47.84 53.2 47.84 84.67"/></g><g><path class="cls-1" d="M215.39,41.85v6.06h-3.78v-6.06h3.78Zm0,11.88v30.96h-3.78v-30.96h3.78Z"/><path class="cls-1" d="M223.14,53.73v5.34h.12c.72-1.88,2-3.39,3.84-4.53,1.84-1.14,3.86-1.71,6.06-1.71s3.97,.28,5.43,.84,2.63,1.35,3.51,2.37c.88,1.02,1.5,2.27,1.86,3.75,.36,1.48,.54,3.14,.54,4.98v19.92h-3.78v-19.32c0-1.32-.12-2.55-.36-3.69-.24-1.14-.66-2.13-1.26-2.97-.6-.84-1.41-1.5-2.43-1.98-1.02-.48-2.29-.72-3.81-.72s-2.87,.27-4.05,.81c-1.18,.54-2.18,1.28-3,2.22-.82,.94-1.46,2.06-1.92,3.36-.46,1.3-.71,2.71-.75,4.23v18.06h-3.78v-30.96h3.78Z"/><path class="cls-1" d="M252.28,53.73v5.34h.12c.72-1.88,2-3.39,3.84-4.53,1.84-1.14,3.86-1.71,6.06-1.71s3.97,.28,5.43,.84,2.63,1.35,3.51,2.37c.88,1.02,1.5,2.27,1.86,3.75,.36,1.48,.54,3.14,.54,4.98v19.92h-3.78v-19.32c0-1.32-.12-2.55-.36-3.69-.24-1.14-.66-2.13-1.26-2.97-.6-.84-1.41-1.5-2.43-1.98-1.02-.48-2.29-.72-3.81-.72s-2.87,.27-4.05,.81c-1.18,.54-2.18,1.28-3,2.22-.82,.94-1.46,2.06-1.92,3.36-.46,1.3-.71,2.71-.75,4.23v18.06h-3.78v-30.96h3.78Z"/><path class="cls-1" d="M297.6,54.15c1.82,.88,3.35,2.06,4.59,3.54,1.24,1.48,2.18,3.21,2.82,5.19,.64,1.98,.96,4.09,.96,6.33s-.32,4.35-.96,6.33c-.64,1.98-1.58,3.71-2.82,5.19-1.24,1.48-2.77,2.65-4.59,3.51-1.82,.86-3.91,1.29-6.27,1.29s-4.45-.43-6.27-1.29c-1.82-.86-3.35-2.03-4.59-3.51-1.24-1.48-2.18-3.21-2.82-5.19-.64-1.98-.96-4.09-.96-6.33s.32-4.35,.96-6.33c.64-1.98,1.58-3.71,2.82-5.19,1.24-1.48,2.77-2.66,4.59-3.54,1.82-.88,3.91-1.32,6.27-1.32s4.45,.44,6.27,1.32Zm-11.01,3c-1.36,.76-2.49,1.76-3.39,3-.9,1.24-1.58,2.65-2.04,4.23s-.69,3.19-.69,4.83,.23,3.25,.69,4.83c.46,1.58,1.14,2.99,2.04,4.23,.9,1.24,2.03,2.24,3.39,3,1.36,.76,2.94,1.14,4.74,1.14s3.38-.38,4.74-1.14c1.36-.76,2.49-1.76,3.39-3,.9-1.24,1.58-2.65,2.04-4.23,.46-1.58,.69-3.19,.69-4.83s-.23-3.25-.69-4.83-1.14-2.99-2.04-4.23c-.9-1.24-2.03-2.24-3.39-3-1.36-.76-2.94-1.14-4.74-1.14s-3.38,.38-4.74,1.14Z"/><path class="cls-1" d="M309.93,53.73l9.72,27.18h.12l9.6-27.18h3.9l-11.58,30.96h-4.02l-11.94-30.96h4.2Z"/><path class="cls-1" d="M335.37,58.53c.64-1.32,1.51-2.4,2.61-3.24,1.1-.84,2.39-1.46,3.87-1.86,1.48-.4,3.12-.6,4.92-.6,1.36,0,2.72,.13,4.08,.39,1.36,.26,2.58,.75,3.66,1.47,1.08,.72,1.96,1.73,2.64,3.03,.68,1.3,1.02,2.99,1.02,5.07v16.44c0,1.52,.74,2.28,2.22,2.28,.44,0,.84-.08,1.2-.24v3.18c-.44,.08-.83,.14-1.17,.18s-.77,.06-1.29,.06c-.96,0-1.73-.13-2.31-.39-.58-.26-1.03-.63-1.35-1.11-.32-.48-.53-1.05-.63-1.71s-.15-1.39-.15-2.19h-.12c-.68,1-1.37,1.89-2.07,2.67-.7,.78-1.48,1.43-2.34,1.95-.86,.52-1.84,.92-2.94,1.2-1.1,.28-2.41,.42-3.93,.42-1.44,0-2.79-.17-4.05-.51-1.26-.34-2.36-.88-3.3-1.62-.94-.74-1.68-1.68-2.22-2.82-.54-1.14-.81-2.49-.81-4.05,0-2.16,.48-3.85,1.44-5.07,.96-1.22,2.23-2.15,3.81-2.79s3.36-1.09,5.34-1.35c1.98-.26,3.99-.51,6.03-.75,.8-.08,1.5-.18,2.1-.3,.6-.12,1.1-.33,1.5-.63,.4-.3,.71-.71,.93-1.23,.22-.52,.33-1.2,.33-2.04,0-1.28-.21-2.33-.63-3.15-.42-.82-1-1.47-1.74-1.95-.74-.48-1.6-.81-2.58-.99-.98-.18-2.03-.27-3.15-.27-2.4,0-4.36,.57-5.88,1.71-1.52,1.14-2.32,2.97-2.4,5.49h-3.78c.12-1.8,.5-3.36,1.14-4.68Zm18.9,9.24c-.24,.44-.7,.76-1.38,.96-.68,.2-1.28,.34-1.8,.42-1.6,.28-3.25,.53-4.95,.75-1.7,.22-3.25,.55-4.65,.99-1.4,.44-2.55,1.07-3.45,1.89-.9,.82-1.35,1.99-1.35,3.51,0,.96,.19,1.81,.57,2.55s.89,1.38,1.53,1.92,1.38,.95,2.22,1.23c.84,.28,1.7,.42,2.58,.42,1.44,0,2.82-.22,4.14-.66,1.32-.44,2.47-1.08,3.45-1.92,.98-.84,1.76-1.86,2.34-3.06,.58-1.2,.87-2.56,.87-4.08v-4.92h-.12Z"/><path class="cls-1" d="M375.3,53.73v3.18h-6.3v20.88c0,1.24,.17,2.21,.51,2.91,.34,.7,1.19,1.09,2.55,1.17,1.08,0,2.16-.06,3.24-.18v3.18c-.56,0-1.12,.02-1.68,.06-.56,.04-1.12,.06-1.68,.06-2.52,0-4.28-.49-5.28-1.47-1-.98-1.48-2.79-1.44-5.43v-21.18h-5.4v-3.18h5.4v-9.3h3.78v9.3h6.3Z"/><path class="cls-1" d="M382.2,41.85v6.06h-3.78v-6.06h3.78Zm0,11.88v30.96h-3.78v-30.96h3.78Z"/><path class="cls-1" d="M406.41,54.15c1.82,.88,3.35,2.06,4.59,3.54,1.24,1.48,2.18,3.21,2.82,5.19,.64,1.98,.96,4.09,.96,6.33s-.32,4.35-.96,6.33c-.64,1.98-1.58,3.71-2.82,5.19-1.24,1.48-2.77,2.65-4.59,3.51-1.82,.86-3.91,1.29-6.27,1.29s-4.45-.43-6.27-1.29c-1.82-.86-3.35-2.03-4.59-3.51-1.24-1.48-2.18-3.21-2.82-5.19-.64-1.98-.96-4.09-.96-6.33s.32-4.35,.96-6.33c.64-1.98,1.58-3.71,2.82-5.19,1.24-1.48,2.77-2.66,4.59-3.54,1.82-.88,3.91-1.32,6.27-1.32s4.45,.44,6.27,1.32Zm-11.01,3c-1.36,.76-2.49,1.76-3.39,3-.9,1.24-1.58,2.65-2.04,4.23s-.69,3.19-.69,4.83,.23,3.25,.69,4.83c.46,1.58,1.14,2.99,2.04,4.23,.9,1.24,2.03,2.24,3.39,3,1.36,.76,2.94,1.14,4.74,1.14s3.38-.38,4.74-1.14c1.36-.76,2.49-1.76,3.39-3,.9-1.24,1.58-2.65,2.04-4.23,.46-1.58,.69-3.19,.69-4.83s-.23-3.25-.69-4.83-1.14-2.99-2.04-4.23c-.9-1.24-2.03-2.24-3.39-3-1.36-.76-2.94-1.14-4.74-1.14s-3.38,.38-4.74,1.14Z"/><path class="cls-1" d="M421.74,53.73v5.34h.12c.72-1.88,2-3.39,3.84-4.53,1.84-1.14,3.86-1.71,6.06-1.71s3.97,.28,5.43,.84,2.63,1.35,3.51,2.37c.88,1.02,1.5,2.27,1.86,3.75,.36,1.48,.54,3.14,.54,4.98v19.92h-3.78v-19.32c0-1.32-.12-2.55-.36-3.69-.24-1.14-.66-2.13-1.26-2.97-.6-.84-1.41-1.5-2.43-1.98-1.02-.48-2.29-.72-3.81-.72s-2.87,.27-4.05,.81c-1.18,.54-2.18,1.28-3,2.22-.82,.94-1.46,2.06-1.92,3.36-.46,1.3-.71,2.71-.75,4.23v18.06h-3.78v-30.96h3.78Z"/></g></svg>